<?xml version="1.0" encoding="UTF-8" standalone="no"?>
<!-- Created with Inkscape (http://www.inkscape.org/) -->

<svg
   version="1.1"
   id="svg1"
   width="604"
   height="994.66602"
   viewBox="0 0 604 994.66606"
   sodipodi:docname="Jesus-Christ-on-the-cross.svg"
   inkscape:version="1.3.2 (091e20ef0f, 2023-11-25)"
   xmlns:inkscape="http://www.inkscape.org/namespaces/inkscape"
   xmlns:sodipodi="http://sodipodi.sourceforge.net/DTD/sodipodi-0.dtd"
   xmlns="http://www.w3.org/2000/svg"
   xmlns:svg="http://www.w3.org/2000/svg">
  <defs
     id="defs1" />
  <sodipodi:namedview
     id="namedview1"
     pagecolor="#ffffff"
     bordercolor="#000000"
     borderopacity="0.25"
     inkscape:showpageshadow="2"
     inkscape:pageopacity="0.0"
     inkscape:pagecheckerboard="0"
     inkscape:deskcolor="#d1d1d1"
     showgrid="false"
     inkscape:zoom="4.0258422"
     inkscape:cx="146.18059"
     inkscape:cy="277.08488"
     inkscape:window-width="1920"
     inkscape:window-height="1011"
     inkscape:window-x="0"
     inkscape:window-y="0"
     inkscape:window-maximized="1"
     inkscape:current-layer="layer1" />
  <g
     inkscape:groupmode="layer"
     id="layer1"
     inkscape:label="Layer 1"
     transform="translate(-48,-16)">
    <path
       style="display:inline;fill:#008000;stroke-width:0.5"
       d="m 273.28223,208.88924 -1.90757,4.40065 3.81782,4.46412 11.55092,0.5265 18.77449,-2.74873 12.37777,-4.44177 10.32807,-5.29365 10.28516,-7.599 7.00278,-7.1753 3.54519,-6.50935 -2.68258,-5.83267 -8.01467,2.72102 c 0,0 -10.07778,9.2992 -10.73479,10.40942 -0.65701,1.11021 -9.58524,4.30053 -9.58524,4.30053 l -14.54189,6.69081 -16.56925,2.09529 z"
       id="path6" />
    <path
       id="path5"
       style="display:inline;fill:#0000ff;stroke-width:0.5"
       d="m 392.00391,410.21484 -2.1211,14.25782 c 0,0 -14.40151,11.64632 -15.34765,12.22265 -0.94614,0.57633 -13.25423,5.76472 -14.84375,6.42578 -1.58955,0.66106 -26.56055,7.69922 -26.56055,7.69922 l -15.83398,4.80078 -0.2168,-0.20312 -2.43164,2.27539 -23.55274,11.49414 -12.78515,8.18555 1.78711,-6.28321 7.17578,-14.68164 -0.31836,0.46875 L 268.13086,486 l -12.83984,17.76953 -5.18555,19.67969 -3.82422,22.76367 6.46484,14.73438 13.36914,16.46484 11.3418,7.63086 4.3125,-19.61328 2.42969,-20.51172 13.0918,-9.74024 29.36328,-3.04687 38.86914,-9.41602 27.8789,-11.96093 15.24219,-8.57422 c 0,0 8.90487,-15.76569 9.51563,-16.80274 0.61075,-1.03704 1.1289,-22.47461 1.1289,-22.47461 l -2.95898,-25.05078 -9.76367,-16.85547 z m 19.55078,44.02735 -0.44727,12.80078 c 0,0 -15.79925,16.0015 -16.98828,16.39844 -1.18903,0.39695 -21.37175,3.49611 -23.03711,3.2832 -1.66536,-0.2129 -26.47687,2.78954 -28.58789,2.55859 -2.11101,-0.23094 -19.19922,1.69141 -19.19922,1.69141 l -31.22656,11.65039 -6.74024,-2.76172 6.41797,-9.12109 14.40039,-6.53711 17.34961,-3.33789 c 0,0 15.34576,-1.24805 16.83789,-1.24805 1.49214,0 19.2829,-4.29492 21.42188,-4.29492 2.13898,0 23.79964,-7.6297 25.07617,-8.74024 1.27654,-1.11052 17.4371,-7.87708 18.92383,-8.49414 1.48673,-0.61707 5.79883,-3.84765 5.79883,-3.84765 z" />
    <path
       id="path4"
       style="display:inline;fill:#803300;stroke-width:0.5"
       d="m 306.90039,173.18164 c -0.77088,0.19484 -14.47803,4.59582 -15.01172,4.79297 -0.53368,0.19715 -10.16601,12.28711 -10.16601,12.28711 0,0 -3.03295,10.15588 -2.93555,10.58984 0.0974,0.43396 3.02734,4.30469 3.02734,4.30469 l 28.4336,-5.19141 20.63476,-11.98046 10.41992,-7.83594 5.17188,0.48437 1.87305,6.32422 -3.10743,5.03711 -5.65429,3.72656 c 0,0 -3.33657,4.59367 -3.75782,4.88477 -0.42124,0.2911 -7.84179,3.87109 -7.84179,3.87109 l -0.70508,3.33789 -5.17383,1.33008 c 0,0 -5.89258,2.00599 -5.89258,2.30274 0,0.29675 -1.60351,2.91601 -1.60351,2.91601 l 0.51562,1.75391 c 0,0 3.7158,0.20164 4.01563,0.25781 0.29984,0.0562 9.10841,0.0501 9.58984,-0.0156 0.32373,-0.0442 2.13282,-0.63511 3.52735,-1.09571 l 1.42382,1.57617 3.51953,9.62891 1.76954,11.71094 -1.26563,5.51367 -14.36719,2.17773 -11.70507,4.76953 -7.44141,2.19727 c 0,0 -2.79423,2.81114 -3.36719,3.66211 -0.57296,0.85098 -3.29101,1.42969 -3.29101,1.42969 l -4.4961,-2.97852 c 0,0 -5.4852,-9.45181 -5.65039,-9.98242 -0.16519,-0.5306 -2.33203,-6.77734 -2.33203,-6.77734 0,0 0.98532,-12.88555 0.91602,-13.53321 -0.0693,-0.64767 -0.34571,-5.13476 -0.34571,-5.13476 l -9.04687,0.14258 c 0,0 -5.50929,16.31027 -6.09766,17.29101 -0.58837,0.98074 -1.64844,9.50586 -1.64844,9.50586 l 2.62696,13.5918 5.03515,4.45117 7.23829,14.80859 5.59374,10.875 6.98047,10.33399 c 0,0 6.82745,1.05785 7.34766,0.87109 0.52021,-0.18675 3.4707,-6.45117 3.4707,-6.45117 l 3.16602,-7.73828 5.8418,0.0859 c 0,0 10.45608,5.4841 10.55468,5.95117 0.0986,0.46708 6.10352,0.0566 6.10352,0.0566 l 5.71484,-7.77344 c 0,0 6.01273,3.0556 6.11133,3.52344 0.0986,0.46784 9.06055,7.49023 9.06055,7.49023 l 4.61719,-1.92773 9.24414,-17.81055 6.73242,-17.11133 -2.00782,-21.36523 -0.70117,-16.90039 c 0,0 -2.60399,-15.22572 -3.17773,-15.78906 -0.57373,-0.56333 -17.50195,-22.26954 -17.50195,-22.26954 0,0 -4.41739,-5.97757 -5.32227,-6.07617 -0.90488,-0.0986 -15.15099,-3.09961 -15.75977,-3.09961 -0.60877,0 -22.13146,-1.20264 -22.90234,-1.00781 z" />
    <path
       id="path3"
       style="display:inline;fill:#deaa87;stroke-width:0.5"
       d="m 137.24805,179.56055 c -1.37349,0.007 -2.69336,0.0976 -2.69336,0.0976 0,0 -1.61133,6.14846 -1.61133,6.94727 0,0.79881 -3.52344,4.45898 -3.52344,4.45898 0,0 -4.66805,-0.16414 -5.30469,-0.95312 -0.63661,-0.78898 -14.75976,-8.20117 -14.75976,-8.20117 l -8.48047,-0.40235 -9.015625,3.14844 -4.175781,7.42578 -2.216797,10.82227 1.748047,9.30859 8.898437,12.81836 15.285159,10.74805 12.02148,8.50586 10.29883,4.0332 11.52734,10.42773 13.75196,18.09961 10.05078,10.28516 18.7539,16.55859 16.71875,6.63672 25.07422,8.61524 24.24805,7.70898 6.49023,12.0332 10.44532,30.0293 13.45508,22.47266 5.56835,20.33398 2.48633,22.18555 2.49805,2.44336 -3.36914,11.77929 -11.32031,23.16211 -1.78711,6.28321 12.78515,-8.18555 23.55274,-11.49414 2.8164,-2.63672 1.92578,1.57813 c 0,0 10.62571,-4.32422 11.21485,-4.32422 0.58915,0 20.34441,-6.92774 20.90625,-6.92774 0.56185,0 16.53618,-5.42553 17.33008,-5.70508 0.7939,-0.27956 12.14257,-6.83203 12.14258,-6.83203 l 8.57031,-16.08984 0.0742,-36.13086 12.88281,-24.53711 17.34766,-21.04883 41.90234,-23.55468 78.41406,-39.48633 c 0,0 17.75837,-11.86671 18.35352,-12.06055 0.59515,-0.19383 12.2804,-4.29747 13.07812,-4.7168 0.79772,-0.41934 21.73242,-14.64062 21.73242,-14.64062 0,0 14.31615,-12.334 15.19141,-12.92969 0.87525,-0.5957 5.15765,-7.95721 5.8418,-8.21875 0.68414,-0.26154 1.18665,-14.95937 1.04687,-16.14258 -0.13978,-1.1832 -4.53263,-12.91563 -5.16601,-13.3164 -0.63337,-0.40077 -10.83985,-4.53516 -10.83985,-4.53516 0,0 -5.60093,0.27148 -6.19336,0.27148 -0.59242,0 -12.11372,4.86141 -12.93164,5.6504 -0.81793,0.78894 -6.81445,1.9082 -6.81445,1.9082 l -3.25586,-8.14453 -5.79102,1.22265 c 0,0 -8.24471,7.40952 -8.75195,8.08985 -0.50725,0.68032 -9.70535,10.52759 -10.12305,11.32422 -0.4177,0.79659 -6.38612,14.6602 -7.14453,15.33398 -0.75841,0.67377 -11.99526,11.75586 -13.73047,12.5918 -1.73518,0.83594 -30.08203,15.04882 -30.08203,15.04883 l -34.14453,11.54101 -23.39648,4.17188 c 0,0 -17.1363,-0.0762 -18.49805,-0.0762 -1.36174,0 -15.42514,-3.6985 -16.10547,-4.18554 -0.68032,-0.48704 -23.74609,-5.97461 -23.74609,-5.97461 l -8.3418,17.28515 -10.16016,22.33008 -2.65429,6.75195 -15.27735,-14.27148 -4.14843,-0.35156 -5.23243,9.02344 -17.03515,-8.0293 -5.68555,1.58203 -4.69336,10.70703 c 0,0 -3.63884,6.47359 -4.1914,5.67969 -0.55256,-0.79389 -8.52488,-9.64369 -9.08399,-10.44141 -0.55911,-0.79772 -4.47265,-7.00976 -4.47265,-7.00976 l -8.97071,-20.54102 c 0,0 -12.2753,1.21484 -13.1582,1.21484 -0.8829,0 -37.78906,1.1504 -37.78906,1.1504 0,0 -15.6155,-6.80877 -16.99414,-7.20899 -1.37867,-0.40023 -27.39454,-17.70312 -27.39453,-17.70312 l -18.04102,-18.26172 -10.7793,-21.09766 -8.08789,-17.76367 c 0,0 -5.81561,-6.60429 -6.24805,-7.28516 -0.21618,-0.34044 -1.64409,-0.41705 -3.01757,-0.41015 z m 172.57031,34.02734 -0.84961,0.38672 c 0,0 -10.45066,2.77148 -11.20703,2.77148 -0.75636,0 -9.4668,2.4043 -9.4668,2.4043 l -3.11133,12.1582 0.0996,10.29493 4.16407,8.32226 3.24023,5.57031 4.12891,1.0918 6.13867,-2.06836 7.89648,-3.30859 11.98438,-6.17578 12.20508,-0.95118 3.9746,-3.08007 c 0,0 -0.54101,-7.66332 -0.54101,-8.58203 0,-0.91876 -1.75,-8.47111 -1.75,-9.17188 0,-0.70078 -3.61719,-6.29102 -3.61719,-6.29102 l -1.52734,-2.02148 -3.65625,1.59766 -9.81055,-0.0469 c 0,0 -7.14516,-2.24414 -7.68359,-2.24414 -0.1435,0 -0.36601,-0.27135 -0.61133,-0.65625 z m 101.73633,240.6543 c 0,0 -4.3121,3.23058 -5.79883,3.84765 -1.48673,0.61706 -17.64729,7.38362 -18.92383,8.49414 -1.27653,1.11054 -22.93719,8.74024 -25.07617,8.74024 -2.13898,0 -19.92974,4.29492 -21.42188,4.29492 -1.49213,0 -16.83789,1.24805 -16.83789,1.24805 l -17.34961,3.33789 -14.40039,6.53711 -6.41797,9.12109 6.74024,2.76172 31.22656,-11.65039 c 0,0 17.08821,-1.92235 19.19922,-1.69141 2.11102,0.23095 26.92253,-2.77149 28.58789,-2.55859 1.66536,0.21291 21.84808,-2.88625 23.03711,-3.2832 1.18903,-0.39694 16.98828,-16.39844 16.98828,-16.39844 z m -11.84571,53.21093 -14.625,7.81836 -27.50976,10.98829 -28.77149,5.91211 -17.96484,1.3457 -21.54687,4.13476 c 0,0 -4.88909,8.86861 -5.08594,9.9336 -0.19685,1.06499 -2.95117,15.07422 -2.95117,15.07422 l -1.56641,18.53906 -3.24805,24.97266 8.00391,38.44531 12.53711,45.45117 12.43359,28.30078 6.40821,12.79883 0.30273,14.02344 c 0,0 -10.54874,23.45748 -11.76367,24.19336 -1.21494,0.73585 -17.77633,26.96932 -18.54297,27.9082 -0.76664,0.93888 -7.06445,19.2539 -7.06445,19.25391 l 1.72851,8.07226 12.1836,4.33398 17.8125,1.38086 c 0,0 15.84066,-2.46999 17.21093,-3.45117 1.37026,-0.98117 6.87305,-6.68359 6.87305,-6.68359 l 9.56055,3.64648 20.13476,3.76368 13.91602,-7.98047 -1.9043,-16.76953 -8.05664,-27.60743 -3.18945,-18.80273 -0.17383,-18.20703 2.63867,-36.77149 5.80469,-19.46289 -4.62891,-23.23633 -6.81054,-25.5957 c 0,0 -5.55668,-14.18757 -4.82618,-15.0957 0.7305,-0.90813 5.34766,-15.95899 5.34766,-15.95899 l 14.98828,-27.38476 23.67383,-42.61328 5.7207,-23.93946 z" />
    <path
       id="path2"
       style="display:inline;fill:#aa4400;stroke-width:0.5"
       d="m 409.50977,22.226562 -110.82032,3.304688 -0.10351,148.77734 -242.650393,0.11524 -2.212891,105.28515 108.013674,-0.0605 -2.73828,-2.80274 -13.75196,-18.09961 -11.52734,-10.42773 -10.29883,-4.0332 -12.02148,-8.50586 -15.285159,-10.74805 -8.898437,-12.81836 -1.748047,-9.30859 2.216797,-10.82227 4.175781,-7.42578 9.015625,-3.14844 8.48047,0.40235 c 0,0 14.12318,7.41219 14.75976,8.20117 0.63664,0.78898 5.30469,0.95312 5.30469,0.95312 0,0 3.52344,-3.66017 3.52344,-4.45898 0,-0.79881 1.61133,-6.94727 1.61133,-6.94727 0,0 1.31987,-0.0906 2.69336,-0.0976 1.37348,-0.007 2.80142,0.0697 3.01757,0.41015 0.43244,0.68087 6.24805,7.28516 6.24805,7.28516 l 8.08789,17.76367 10.7793,21.09766 18.04102,18.26172 c -10e-6,0 26.01586,17.30289 27.39453,17.70312 1.37861,0.40022 16.99414,7.20899 16.99414,7.20899 0,0 36.90616,-1.1504 37.78906,-1.1504 0.43889,0 3.37911,-0.30157 6.54101,-0.60351 -0.0997,-0.93575 -1.20354,-11.28918 -1.52734,-12.0957 -0.33848,-0.84307 -1.54834,-16.95162 -1.34961,-18.00586 0.19874,-1.05424 6.14453,-16.67774 6.14453,-16.67774 l -2.82422,-5.14843 c 0,0 1.2168,-9.28735 1.2168,-10.18555 0,-0.89819 9.92188,-17.29883 9.92188,-17.29883 l 11.21289,-10.33008 c 0,0 16.77346,-2.94432 18.62109,-3.3418 1.84763,-0.39745 15.56055,-0.36718 15.56055,-0.36718 l 16.10351,4.36914 8.94141,10.22851 8.45703,9.44922 6.88672,9.9043 3.13086,15.32031 -0.39453,16.52735 6.29297,14.67773 0.16992,-0.35156 c 0,0 23.06577,5.48757 23.74609,5.97461 0.68033,0.48704 14.74373,4.18554 16.10547,4.18554 1.36175,0 18.49805,0.0762 18.49805,0.0762 l 23.39648,-4.17188 34.14453,-11.54101 c 0,-1e-5 28.34688,-14.21289 30.08203,-15.04883 1.73521,-0.83594 12.97206,-11.91803 13.73047,-12.5918 0.75841,-0.67378 6.72683,-14.53742 7.14453,-15.33398 0.4177,-0.79663 9.6158,-10.6439 10.12305,-11.32422 0.50724,-0.68033 8.75195,-8.08985 8.75195,-8.08985 l 5.79102,-1.22265 3.25586,8.14453 c 0,0 5.99652,-1.11929 6.81445,-1.9082 0.81792,-0.78899 12.33922,-5.6504 12.93164,-5.6504 0.59243,0 6.19336,-0.27148 6.19336,-0.27148 0,0 10.20648,4.13439 10.83985,4.53516 0.63338,0.40077 5.02623,12.1332 5.16601,13.3164 0.13978,1.18321 -0.36273,15.88104 -1.04687,16.14258 -0.68415,0.26154 -4.96655,7.62305 -5.8418,8.21875 -0.87526,0.59569 -15.19141,12.92969 -15.19141,12.92969 0,0 -20.9347,14.22128 -21.73242,14.64062 -0.79772,0.41933 -12.48297,4.52297 -13.07812,4.7168 -0.59515,0.19384 -18.35352,12.06055 -18.35352,12.06055 l -14.7832,7.44531 120.05273,-0.0684 0.002,-105.23242 -236.22852,0.11328 z m -0.62305,326.126958 -6.375,7.73437 -12.88281,24.53711 -0.0566,27.63867 2.3457,2.52735 0.0859,-0.57618 14.5625,10.78125 2.17382,3.75391 z m -0.35156,183.25586 c -2.77616,1.01587 -6.21179,2.13837 -8.94727,3.12304 l -22.22461,40.00391 -14.98828,27.38476 c 0,0 -4.61716,15.05086 -5.34766,15.95899 -0.7305,0.90813 4.82618,15.0957 4.82618,15.0957 l 6.81054,25.5957 4.62891,23.23633 -5.80469,19.46289 -2.63867,36.77149 0.17383,18.20703 3.18945,18.80273 8.05664,27.60743 1.9043,16.76953 -13.91602,7.98047 -20.13476,-3.76368 -9.56055,-3.64648 c 0,0 -5.50279,5.70242 -6.87305,6.68359 -1.37027,0.98118 -17.21093,3.45117 -17.21093,3.45117 l -12.34766,-0.95703 -0.12109,174.09575 109.625,-0.3711 z m -110.3086,161.29296 -0.0605,85.42383 c 3.04984,-4.64258 5.74841,-8.67072 6.19531,-8.9414 1.21493,-0.73588 11.76367,-24.19336 11.76367,-24.19336 l -0.30273,-14.02344 -6.40821,-12.79883 z" />
    <path
       id="path1"
       style="display:inline;fill:#000000"
       d="m 290.66602,16 v 76 76 H 169.33398 48 v 59.33398 59.33204 h 57.35742 57.35547 l 8.89649,9.42968 c 4.89239,5.18625 10.4555,10.23806 12.36328,11.22461 1.90773,0.98655 15.75553,5.95898 30.77148,11.05078 15.016,5.09184 29.75012,10.50677 32.74219,12.03321 8.29439,4.23146 9.57023,6.81478 18.25976,36.92968 0.8464,2.93334 2.29706,5.81043 3.22266,6.39454 3.5266,2.22548 12.24601,16.79654 14.19141,23.71484 1.11721,3.97311 2.68505,15.98803 3.48437,26.69922 l 1.45313,19.47461 -5.87891,12.08008 c -3.23395,6.64446 -6.48115,13.78178 -7.21484,15.85937 -0.73368,2.07758 -5.10458,8.26495 -9.71289,13.75 -4.60837,5.48509 -9.58018,12.6851 -11.04883,16 -4.49094,10.13655 -8.96227,28.12694 -9.78125,39.35938 -0.76732,10.52403 -0.71429,10.75912 3.86523,17.52929 2.55288,3.77407 9.00474,12.0437 14.33789,18.37696 l 9.69727,11.51562 -0.25195,11.35352 c -0.2506,11.37011 0.79054,17.10626 8.57812,47.2832 1.80608,6.99851 4.7897,17.15319 6.63086,22.56641 3.34055,9.82243 3.34766,9.9443 3.34766,60.01757 v 50.17383 l -3.44141,4.5918 c -7.04055,9.39556 -12.89029,22.90523 -13.56641,31.32812 -0.62428,7.77721 -0.48683,8.22398 3.55274,11.62305 2.31073,1.94436 6.28309,3.92488 8.82812,4.40234 l 4.62696,0.86915 v 89.18554 89.18358 H 353.33398 416 V 758.82812 506.98828 l 3.25586,-7.16016 c 3.16311,-6.95881 3.24541,-7.95309 2.91211,-35.1621 -0.31614,-25.80712 -0.57185,-28.43935 -3.25586,-33.61329 C 416.10498,425.6415 416,423.97694 416,384.85352 v -40.58594 l 7.08594,-6.4668 c 7.36743,-6.72456 11.2586,-8.99492 23.58008,-13.75195 4.03329,-1.55718 14.93569,-7.03891 24.22656,-12.18164 9.8929,-5.47603 22.59943,-11.21114 30.66601,-13.8418 17.34798,-5.65742 23.77539,-8.37229 23.77539,-10.04297 0,-0.84656 22.57324,-1.3164 63.33204,-1.3164 H 652 V 227.33398 168 H 534 416 V 92 16 H 353.33398 Z M 304,29.333984 h 49.33398 49.33204 v 75.999996 76 h 79.92187 c 43.95652,0 80.23258,0.5032 80.61328,1.11914 0.3807,0.61599 -3.5045,5.08758 -8.63476,9.9375 -7.25139,6.85517 -10.31459,10.98453 -13.76172,18.54883 -2.47749,5.43647 -6.70354,11.93444 -9.57617,14.72461 -10.57276,10.26931 -54.60812,28.91897 -79.375,33.61719 -9.91131,1.88016 -32.77914,2.55867 -39.1875,1.16211 -6.55553,-1.42862 -21.88108,-6.25756 -27.55274,-8.68164 -8.15522,-3.48559 -9.60588,-7.11837 -9.3457,-23.40234 0.28076,-17.57206 -1.7641,-22.09178 -17.7793,-39.26954 -4.58052,-4.91303 -7.32226,-9.02971 -7.32226,-10.99609 0,-3.16995 -2.20901,-4.75977 -6.61133,-4.75977 -1.3169,0 -3.16574,-0.92974 -4.10742,-2.06445 -0.94173,-1.13471 -2.0647,-1.50865 -2.4961,-0.83203 -0.44882,0.70393 -7.77116,0.93791 -17.11719,0.54688 L 304,170.30078 V 99.816406 Z m 15.91797,146.667966 c 5.22165,0.16274 10.01731,0.86539 11.49414,2.01758 2.49372,1.94556 2.35818,2.22581 -3.69922,7.69727 -3.45779,3.12323 -9.75779,7.46585 -14,9.64843 -6.52057,3.35487 -9.4103,4.00515 -18.6875,4.20704 -6.03558,0.13135 -11.58433,0.61601 -12.33203,1.07812 -1.69793,1.04953 -1.69731,-0.0487 0.008,-6.18555 1.57286,-5.66265 10.13413,-14.00995 15.59766,-15.20703 2.03515,-0.4459 5.44035,-1.36245 7.5664,-2.03515 3.1826,-1.00699 8.83105,-1.38344 14.05274,-1.22071 z m 318.74805,5.05664 v 46.13672 46.13867 h -46.89844 -46.90039 l 7.6289,-5.92382 c 4.24891,-3.29934 10.71252,-6.81953 14.5918,-7.94727 8.67415,-2.52166 16.32937,-7.55049 30.50781,-20.03711 18.44105,-16.24052 18.83934,-16.79431 19.92969,-27.79687 0.80922,-8.16572 0.52276,-10.69701 -1.875,-16.65235 -2.45837,-6.10581 -3.49464,-7.2226 -7.94727,-8.55664 -8.76615,-2.62642 -3.61306,-4.3812 14.36329,-4.89062 z m -577.332036,0.27539 h 15.373047 15.373047 l -2.751953,3.72071 c -3.768475,5.09712 -6.040244,20.07743 -3.988281,26.29492 3.956344,11.98785 18.532466,24.98 40.527346,36.11914 11.78024,5.96599 14.21028,7.81695 19.78125,15.07422 3.49311,4.55052 6.35156,8.84132 6.35156,9.5332 0,0.76373 -17.81157,1.25781 -45.33398,1.25781 H 61.333984 v -46 z m 153.332036,0 c 38.13313,0 69.33398,0.37716 69.33398,0.8379 0,1.29604 -8.16888,15.54243 -10.41406,18.1621 -1.09986,1.28333 -3.49875,2.33204 -5.33203,2.33204 -3.04914,0 -3.16321,0.19959 -1.33008,2.33398 3.20422,3.73088 3.93925,7.0255 1.7207,7.7168 -6.63374,2.06704 -6.34314,1.77403 -4.03906,4.07812 1.56461,1.56461 2.59775,1.75342 3.86328,0.70313 1.24132,-1.03021 2.17026,-0.99385 3.29687,0.13281 2.55741,2.55741 1.81986,6.95591 -2.55468,15.23437 -4.29781,8.13321 -4.38712,9.37283 -1.80274,25.26758 0.73279,4.50683 0.47485,5.62723 -1.46875,6.37305 -3.90002,1.4966 -34.25829,2.17588 -39.28125,0.87891 -25.70538,-6.6376 -62.20974,-36.23699 -66.66015,-54.05079 -2.71821,-10.88006 -4.49021,-14.82438 -9.51563,-21.17578 -2.83191,-3.57908 -5.14844,-7.02847 -5.14844,-7.66601 0,-0.6418 30.94403,-1.15821 69.33204,-1.15821 z m 365.14843,0.11329 c 2.42917,0.0523 5.39856,0.38874 8.85157,1.03125 l 5.33398,0.99414 -6.21484,2.80273 c -10.01946,4.51961 -11.12479,4.66359 -13.72266,1.79297 -3.96042,-4.37621 -1.53551,-6.77813 5.75195,-6.62109 z m -456,0.14453 c 3.93109,-0.22447 7.42844,-0.12625 7.77344,0.21875 0.34499,0.34499 -0.0408,1.87873 -0.85937,3.4082 -1.88072,3.51415 -3.57654,3.46995 -9.39454,-0.24219 L 116.66602,182 Z m 14.61914,0.20312 c 1.75263,-0.24634 3.32018,1.55279 5.01758,5.61524 1.01537,2.43009 3.35647,6.64603 5.20313,9.36718 1.84665,2.7212 4.19249,7.75208 5.21093,11.18164 3.99626,13.45683 12.39396,26.71587 19.69922,31.10157 2.69331,1.61691 11.18907,7.7388 18.88086,13.60547 9.82495,7.4936 17.01506,11.8186 24.17188,14.5371 l 10.1875,3.86915 24.48047,-0.77149 c 21.83567,-0.68806 24.69264,-0.52876 26.45898,1.46484 1.08911,1.22928 4.63631,7.93374 7.88086,14.9004 4.02114,8.6341 7.52915,14.09345 11.01953,17.14843 l 5.11914,4.48243 2.42188,-3.14844 c 1.3319,-1.7317 3.38345,-5.99913 4.55859,-9.48242 2.63934,-7.82343 4.69113,-8.05561 14.67969,-1.66602 4.0123,2.56666 7.87529,4.66602 8.58398,4.66602 0.70869,0 2.86734,-2.38505 4.79688,-5.30079 l 3.50781,-5.30078 9.37305,10.03711 c 5.15576,5.52079 9.79466,9.55713 10.30859,8.96875 0.51393,-0.58838 1.89946,-5.10855 3.07813,-10.04492 1.19351,-4.99865 4.51389,-12.90633 7.49414,-17.84766 2.94305,-4.87967 6.35195,-11.49088 7.57421,-14.6914 2.08038,-5.44741 2.54265,-5.82031 7.2461,-5.82031 2.76345,0 9.43145,1.54643 14.81836,3.43554 14.97147,5.25032 18.13108,5.83289 31.83203,5.86719 11.10067,0.0278 14.80012,-0.6269 29.33203,-5.18359 46.87836,-14.69949 74.30089,-28.67752 79.27734,-40.41211 6.13254,-14.46058 8.31298,-17.94164 16.72071,-26.68946 8.65103,-9.00092 12.15121,-10.6125 13.04492,-6.00586 0.22658,1.16789 -0.82408,4.83599 -2.33399,8.15039 -1.75461,3.85171 -2.70115,8.57883 -2.625,13.09961 l 0.11915,7.07227 1.6582,-6.00781 c 3.07566,-11.13397 6.25454,-14.76589 18.57226,-21.23047 8.73336,-4.58343 11.75392,-5.01566 14.67383,-2.0957 1.1,1.09995 2.9,2 4,2 3.14128,0 6.63675,4.08787 4.94336,5.78125 C 607.40942,198.45772 607.66071,200 610,200 c 3.00006,0 2.41565,4.10435 -1.38086,9.69141 l -3.38281,4.97461 h 4.04883 c 2.66661,0 4.04882,0.66819 4.04882,1.95507 0,2.81347 -7.41872,10.85064 -14.53125,15.74414 -3.36383,2.3144 -9.52061,7.33887 -13.68359,11.16602 -6.20581,5.70517 -9.3296,7.46095 -17.34375,9.74805 -13.39872,3.82371 -19.08174,6.62753 -29.6582,14.63281 -10.86403,8.22295 -22.17177,14.05167 -40.11719,20.67969 -7.33329,2.70845 -18.5583,7.9111 -24.94336,11.56054 -6.38505,3.64949 -17.78385,9.52585 -25.33203,13.06055 -13.50338,6.32338 -36.77561,22.39117 -43.8457,30.27149 -1.89971,2.11736 -4.25209,5.94896 -5.22852,8.51562 -0.97643,2.56667 -4.37307,9.90468 -7.54687,16.30664 l -5.76954,11.64063 v 20.09179 c 0,22.29656 -0.77262,25.18374 -8.25586,30.88672 -7.92752,6.04167 -17.43964,9.9862 -36.4121,15.09766 -5.58313,1.50415 -7.18894,1.98266 -10.91016,3.01367 l -21.83594,8.90234 c -2.11189,1.29366 -4.91831,2.85544 -7.9668,4.39453 -15.88123,8.0181 -17.05267,7.6698 -11.40429,-3.3789 1.76403,-3.45062 3.37642,-5.87424 4.92969,-7.78125 l -0.041,-0.01 2.58984,-4.875 1.17188,-5.19336 0.36133,-7.46093 -1.00782,-6.88868 c -1.49698,-4.0708 -2.57991,-9.23826 -3.91992,-17.41211 -2.70031,-16.47172 -3.84944,-19.59721 -11.125,-30.25586 -9.57949,-14.03392 -13.86967,-25.79151 -20.91992,-57.32812 -1.01431,-4.5371 -2.74203,-10.23646 -3.83789,-12.66602 l -1.99219,-4.41796 0.85938,5.33398 c 1.57195,9.76645 1.35949,10.63081 -2.71485,11.09766 -4.73894,0.543 -24.7279,-5.12894 -39.56836,-11.22852 -6.23329,-2.56197 -14.30806,-5.59081 -17.94336,-6.73047 -7.2128,-2.26095 -16.7295,-11.1287 -45.2246,-42.13867 -10.2843,-11.19196 -15.26233,-15.66602 -17.42969,-15.66602 -4.88972,0 -15.77336,-6.61914 -28.07227,-17.07226 C 89.600149,215.45882 83.13027,205.1557 91.466797,207.24805 l 3.464844,0.86914 -2.798829,-3.93164 c -3.287259,-4.61656 -3.521265,-6.65791 -0.878906,-7.67188 1.516706,-0.58202 1.615695,-1.40693 0.470703,-3.91992 -2.866685,-6.29167 2.721299,-8.57455 8.609371,-3.51758 2.1218,1.8223 2.33204,1.73877 2.33204,-0.91211 0,-3.36105 2.70034,-4.78385 7.0039,-3.6914 4.54825,1.15456 20.43619,14.92504 22.08594,19.14257 0.79976,2.04457 1.69909,5.21746 2,7.05079 0.30091,1.83328 0.62862,-3.3418 0.72852,-11.50196 0.13693,-11.19283 0.65829,-15.2336 2.12304,-16.44922 0.63713,-0.52877 1.24197,-0.8378 1.82617,-0.91992 z m 205.44141,0.0332 c 2.61375,-0.36119 3.57431,1.99805 1.43945,5.69336 -1.92636,3.33452 -9.69542,7.65419 -11.15039,6.19922 -1.27198,-1.27198 3.10436,-8.28206 6.59961,-10.57226 1.18518,-0.77656 2.24008,-1.1999 3.11133,-1.32032 z m 5.23633,9.85157 c 3.71939,-0.27814 9.34337,2.72372 12.89453,8.08984 7.06756,10.67983 9.20836,25.23275 5.32812,36.23047 -1.09995,3.11773 -1.98323,6.9422 -1.96093,8.5 0.0384,2.68163 0.11875,2.70046 1.49023,0.33984 1.16963,-2.01314 1.67115,-2.1409 2.60547,-0.66601 1.60025,2.52612 1.49704,14.15169 -0.13477,15.16015 -0.73328,0.45323 -1.36569,2.73808 -1.40429,5.07813 -0.0386,2.34006 -2.66719,9.95526 -5.8418,16.92187 -3.17461,6.96667 -6.62045,12.83691 -7.65625,13.04493 -2.39682,0.48135 -7.14985,-4.55608 -9.0625,-9.60352 -1.94783,-5.1402 -0.55566,-34.48713 2.20703,-46.52539 2.58888,-11.28082 1.77639,-17.77957 -3.47656,-27.80078 -4.88542,-9.31996 -5.38574,-13.76398 -1.43359,-12.73047 1.96499,0.51387 2.66796,0.0416 2.66796,-1.79687 0,-2.72791 1.54569,-4.07531 3.77735,-4.24219 z m -17.1211,2.36914 c 1.07788,0.0896 1.81591,0.54019 2.65039,1.38867 1.81324,1.84357 1.75478,2.25886 -0.5625,3.97656 -1.42344,1.05518 -4.61391,1.91992 -7.08984,1.91992 -3.89486,0 -4.38653,0.35879 -3.6543,2.66602 0.77216,2.43284 0.23875,2.66602 -6.07421,2.66602 -5.97528,0 -6.69543,0.27098 -5.27344,1.98437 1.31833,1.5885 1.28452,2.08291 -0.16992,2.47852 -0.99925,0.27179 -3.91576,1.1579 -6.48243,1.96875 -6.645,2.09925 -25.44491,3.14488 -29,1.61328 -4.065,-1.75131 -3.77758,-3.82266 0.66602,-4.79492 2.01667,-0.44126 5.40715,-1.3527 7.5332,-2.0254 2.1261,-0.67265 8.57485,-1.2246 14.33203,-1.2246 8.41574,0 10.46875,-0.39211 10.46875,-2 0,-1.88925 0.90889,-2.20191 7.33204,-2.5293 1.46661,-0.0747 2.53684,-0.82945 2.37695,-1.67578 -0.41629,-2.2035 2.17682,-3.97007 8.26562,-5.63282 2.1873,-0.59727 3.60381,-0.86888 4.68164,-0.77929 z m 3.12891,10.13476 c 2.0105,0.44512 3.92992,2.42468 6.29688,6.15039 5.34613,8.41526 5.91773,11.27673 4.15234,20.76954 -1.80364,9.69854 -4.23438,13.05308 -4.23438,5.84375 0,-6.66882 -4.11737,-17.02889 -9.4375,-23.7461 -4.20319,-5.30698 -4.28417,-5.61946 -1.88867,-7.37109 1.10172,-0.8056 2.10347,-1.34161 3.05078,-1.58789 0.71049,-0.18471 1.39038,-0.20697 2.06055,-0.0586 z m -212.33203,1.15039 c -2.19392,0 -10.80528,8.89645 -10.73828,11.09375 0.0264,0.86445 1.38198,0.0716 3.01367,-1.76171 1.63169,-1.83333 4.44315,-4.68204 6.24805,-6.33204 1.96494,-1.79629 2.55767,-3 1.47656,-3 z M 576,207.51758 c 0,0.7427 1.55793,2.80615 3.46094,4.58398 1.90301,1.77783 4.34724,4.93667 5.43164,7.02149 1.0844,2.08477 2.27005,3.49166 2.63672,3.125 1.13247,-1.13248 -3.07885,-8.04613 -7.41016,-12.16407 C 577.85367,207.93017 576,206.77488 576,207.51758 Z m -250.4043,3.15625 c 1.50029,0.18236 2.41304,0.98149 2.15821,2.32617 -0.30903,1.6307 -1.94508,2.45884 -5.43164,2.74805 -5.37832,0.44612 -6.61383,-1.45149 -2.41016,-3.70117 2.09468,-1.12105 4.18331,-1.55541 5.68359,-1.37305 z m 28.11328,4.66015 -0.1875,17.63868 c -0.14459,13.57129 0.31574,18.89807 1.9961,23.09765 2.02321,5.05651 2.02321,6.19091 0,15.39844 -1.20124,5.46676 -2.1561,11.57254 -2.1211,13.56836 0.035,1.99583 1.49317,-1.77114 3.24024,-8.37109 3.04986,-11.52161 3.09894,-12.40787 1.23047,-22.26758 -1.07032,-5.64801 -2.44431,-16.74936 -3.05274,-24.66797 z m -39.2539,1.85938 c 9.05908,-0.181 17.82176,-0.0259 18.46875,0.62109 1.11712,1.11712 4.36517,15.72528 4.38867,19.74024 0.0255,4.34954 -1.49696,4.99188 -9.7168,4.09179 -5.49469,-0.60168 -6.69239,-0.29479 -8.41601,2.16602 -1.10504,1.57767 -3.74227,3.76552 -5.86133,4.86133 -2.11907,1.09581 -4.51606,1.99219 -5.32617,1.99219 -0.8101,0 -2.96296,-3.44935 -4.78516,-7.66602 -4.88381,-11.30143 -7.5941,-16.24569 -10.20703,-18.62305 -3.20478,-2.91582 -2.9338,-4.21396 1.20898,-5.78906 1.83199,-0.69652 11.18702,-1.21353 20.2461,-1.39453 z m -188.7461,0.34766 c -1.1869,0.10425 -2.45634,1.06881 -2.79101,2.80664 -0.30813,1.59995 0.41023,2.31836 2.31836,2.31836 1.90814,0 2.76367,-0.85555 2.76367,-2.76368 0,-1.70838 -1.10407,-2.46558 -2.29102,-2.36132 z m 154.61914,4.03125 c 4.22744,0.6003 4.38511,4.15408 0.9961,22.25585 -1.59654,8.52765 -3.43273,16.06235 -4.08203,16.74219 -0.70471,0.73786 -1.963,-0.63647 -3.1211,-3.4082 -4.2094,-10.07457 -4.13033,-11.07557 2.6836,-34.25586 0.28463,-0.96829 1.86989,-1.56879 3.52343,-1.33398 z M 576.07812,224 c -1.80044,0 -3.04784,2.43036 -2.06445,4.02148 0.46062,0.7453 1.39547,1.00976 2.07813,0.5879 C 577.71133,227.60848 577.70059,224 576.0781,224 Z m -247.4121,1.16602 -3.33204,0.73242 c -1.83328,0.40262 -4.98333,0.74 -7,0.75 -2.01661,0.01 -3.66796,0.61823 -3.66796,1.35156 0,2.02126 6.89794,1.50623 10.66796,-0.79688 z M 292.20508,228 c 3.99058,0 4.6985,4.04461 1.20312,6.875 -3.88609,3.1468 -5.02685,3.09613 -6.0957,-0.27148 C 286.26576,231.30555 288.7148,228 292.20508,228 Z m 3.38867,9.84766 c 4.77356,0.51784 8.19399,6.83753 6.5625,13.33789 -1.24175,4.94749 -4.52993,5.31385 -8.85937,0.98437 -4.10065,-4.1006 -6.37813,-10.30776 -4.4668,-12.17383 0.64297,-0.62775 2.73329,-1.52644 4.64453,-1.99804 0.72635,-0.17923 1.4372,-0.22437 2.11914,-0.15039 z m -10.54102,6.6914 c 0.6967,0.30726 1.47205,1.92683 3.04297,5.46094 2.12566,4.78209 3.00111,9.45776 3.09961,16.53906 0.0906,6.51074 -0.39785,10.05645 -1.4375,10.41406 -1.95483,0.67249 -3.52758,-2.21212 -6.2832,-11.52929 -2.64815,-8.95377 -2.73669,-16.10273 -0.24219,-19.50195 0.44749,-0.6098 0.80146,-1.05257 1.12305,-1.2754 0.24119,-0.16712 0.46503,-0.20984 0.69726,-0.10742 z m 40.21485,2.38477 c 3.30297,-0.30807 5.96895,0.50699 8.99414,2.35156 5.31483,3.24069 8.29819,7.70169 9.30664,13.91602 0.99046,6.1034 -1.6109,6.43367 -7.85547,0.99414 -5.99124,-5.21891 -12.64548,-8.44949 -16.13672,-7.83399 -2.81956,0.49709 -2.82614,0.5445 -0.24219,1.52735 C 332.7216,262.971 340,268.47328 340,273.50195 c 0,3.29509 -3.44985,10.22166 -7.05469,14.16407 -1.50872,1.64995 -3.13546,3 -3.61523,3 -0.47978,0 -3.6199,-1.81763 -6.97656,-4.04102 -8.46275,-5.60544 -10.81725,-9.59024 -9.99219,-16.91016 l 0.66797,-5.91601 -3.81055,4.43359 c -3.18932,3.71261 -4.02828,4.10828 -5.16016,2.4336 -0.74344,-1.1 -1.35989,-4.86081 -1.37109,-8.35743 l -0.0215,-6.35742 9.78125,-4.64258 c 5.5762,-2.64677 9.5173,-4.07669 12.82031,-4.38476 z m -30.04688,11.74219 c 1.04825,0 2.63507,2.25 3.52539,5 0.89032,2.74995 3.1072,7.97223 4.92774,11.60351 2.74808,5.48135 3.18199,7.83677 2.55859,13.87695 -0.413,4.00152 -1.62777,8.15317 -2.70117,9.22657 -1.71329,1.71329 -2.61857,1.32131 -7.41406,-3.21094 L 290.6543,290 l 2.10742,-6.66602 c 1.49119,-4.71733 1.87982,-9.29954 1.33008,-15.66796 -0.62809,-7.27598 -0.41191,-9 1.1289,-9 z m 105.47657,112 c 1.64922,0 1.96875,3.2499 1.96875,20 0,13.02405 -0.48484,20 -1.39258,20 -0.76667,0 -2.94478,-1.55025 -4.83985,-3.44532 -3.34207,-3.34207 -3.42621,-3.83909 -2.8125,-16.58398 0.65212,-13.54247 2.92887,-19.9707 7.07618,-19.9707 z M 310,411.86719 l 3.14844,2.73437 c 1.73124,1.50294 3.67993,2.73242 4.33203,2.73242 2.33091,0 1.11758,-1.29861 -3.14649,-3.36523 z m 86.58594,5.13086 6.98047,7.49804 c 9.98187,10.724 11.115,19.83548 3.3789,27.14453 -5.50281,5.19909 -34.34942,18.67345 -46.3164,21.63477 -5.84626,1.44669 -19.38867,3.52167 -30.09375,4.61133 -27.17233,2.76585 -36.35101,5.26115 -42.69727,11.60742 -2.78385,2.78384 -6.22161,7.33676 -7.64062,10.11719 -2.85009,5.58425 -5.24306,7.94259 -12.19727,12.01758 -2.56666,1.50393 -6.10484,3.17095 -7.86328,3.70507 -3.02722,0.9195 -3.15006,0.73662 -2.31641,-3.43164 1.95649,-9.78238 7.08262,-18.11272 15.41016,-25.04296 12.2018,-10.15444 23.16761,-17.26784 35.27734,-22.88086 10.345,-4.79509 16.32662,-6.87143 51.78907,-17.98438 18.55264,-5.81387 24.36596,-9.6782 31.1914,-20.73633 z m 10.17578,45.46289 c 1.09107,0.5196 0.95168,2.2232 -0.51758,5.06445 -2.54124,4.91422 -12.13459,11.8106 -18.94531,13.61719 -2.91448,0.77307 -13.09953,2.04259 -22.63281,2.82226 -8.34152,0.6822 -15.03115,1.41078 -18.26368,1.8711 l -28.13281,4 c -2.90047,1.03981 -4.29666,1.59563 -10.08398,3.5957 -17.22282,5.95209 -15.79595,5.60942 -16.77735,4.02148 -3.12377,-5.0544 10.70407,-12.05928 25.85352,-13.09765 2.81586,-0.19301 4.70545,-0.19146 6.43555,-0.1582 L 349.25,480.60742 c 2.23201,-0.52125 2.43719,-0.70141 5.12891,-1.27148 16.77659,-3.55314 36.96439,-10.13058 45.51953,-14.83203 3.45193,-1.89703 5.77221,-2.56257 6.86328,-2.04297 z m 5.95312,8.4707 c 1.48723,-0.16358 1.95032,1.65803 1.94532,5.40234 -0.0177,13.4512 -4.84609,20.97027 -19.77539,30.79688 -16.67692,10.97687 -39.16858,17.65428 -74.88477,22.23242 -30.68437,3.9332 -33.54322,4.69241 -42.52539,11.30469 -11.52071,8.48105 -11.76204,9.36857 -4.60547,17.01953 6.21107,6.64013 6.38158,7.45975 3.60742,17.3125 -1.21295,4.30795 -5.09335,2.34576 -12.47656,-6.30664 -8.59727,-10.07516 -11.86081,-18.18914 -11.94141,-29.68945 -0.0537,-7.65698 0.31112,-8.73944 4.52735,-13.40625 2.6819,-2.9686 10.01944,-7.91044 17.66797,-11.90039 13.72837,-7.1617 42.50387,-19.38821 51.04297,-21.6875 2.75567,-0.74204 18.67013,-1.97268 35.36328,-2.73438 20.86849,-0.95221 31.44282,-1.95898 33.8457,-3.22461 1.92212,-1.0124 6.47223,-4.88908 10.11133,-8.61328 4.09875,-4.19464 6.61047,-6.34228 8.09765,-6.50586 z m -12.94726,40.05274 c 2.20623,-0.42307 2.89844,0.38625 2.89844,2.26953 0,8.73787 -17.25205,45.75768 -33.2793,71.41211 -16.60736,26.58295 -17.89312,34.80065 -8.86719,56.66796 9.86968,23.91155 11.14541,37.38821 5.30859,56.09766 -3.10408,9.95002 -3.52281,13.59932 -3.66601,31.90234 -0.0889,11.36661 0.28177,25.76672 0.82422,32 l 0.98633,11.33204 -11.26758,12.65625 c -6.19677,6.96076 -14.49898,18.06215 -18.45117,24.66796 -4.96706,8.30207 -8.27083,12.39501 -10.69532,13.25782 -4.93561,1.75649 -5.86132,0.051 -2.46484,-4.54297 1.59791,-2.16128 2.89958,-4.70403 2.89063,-5.65039 -0.009,-0.94636 -1.88005,1.128 -4.15821,4.61133 -2.40383,3.67544 -5.14834,6.33398 -6.54101,6.33398 -1.31991,0 -3.48518,0.41524 -4.81055,0.92383 -1.54111,0.59138 -0.55111,-1.34334 2.74609,-5.36719 2.83566,-3.46055 4.8677,-6.57956 4.51563,-6.93164 -0.35207,-0.35207 -3.1724,2.36447 -6.26758,6.03516 -3.92037,4.64929 -6.61404,6.67382 -8.88086,6.67382 -1.78968,0 -3.25391,-0.2995 -3.25391,-0.66406 0,-0.36455 2.18401,-3.08038 4.85352,-6.03515 2.6695,-2.95483 4.5432,-5.6814 4.16406,-6.06055 -0.37915,-0.37914 -3.04433,1.98483 -5.92187,5.2539 -4.80808,5.46226 -5.59685,5.86855 -9.74805,5.01954 l -4.51758,-0.92383 6.25196,-5.12305 c 3.43831,-2.81747 6.25,-6.00286 6.25,-7.08008 0,-1.10275 -3.03551,1.01335 -6.94727,4.84375 -3.82124,3.74182 -7.57194,6.59802 -8.33398,6.34766 -4.89957,-1.6096 -0.16757,-12.64724 17.2539,-40.24609 6.01782,-9.53329 13.51717,-22.03164 16.66406,-27.77344 l 5.72266,-10.43946 -0.77734,-30.22656 c -0.84358,-32.80219 -1.12947,-34.62666 -10.84375,-69.59375 -3.33935,-12.02012 -6.07032,-23.34129 -6.07032,-25.1582 0,-5.71466 4.10809,-20.01825 12.22071,-42.53906 4.313,-11.97307 8.47204,-24.70773 9.24219,-28.29883 2.00933,-9.36939 5.18354,-12.80499 12.84374,-13.90625 9.5638,-1.37491 35.91435,-10.47283 48.14649,-16.62305 6.0549,-3.04436 9.77423,-4.70002 11.98047,-5.12304 z m -81.05469,23.8789 c 1.22644,0.21143 1.73673,0.75428 2.11133,1.73047 1.33079,3.46799 -1.5166,14.70992 -10.94922,43.22852 -7.90584,23.90252 -8.54102,26.69764 -8.54102,37.60156 0,10.01835 0.78316,14.24551 5.23633,28.26953 8.02438,25.27037 13.01842,56.53568 11.17774,69.96484 -0.42787,3.12162 -1.20733,5.67578 -1.73243,5.67578 -1.33846,0 -8.29062,-15.42074 -14.42773,-32 -17.99796,-48.62087 -23.31448,-82.8336 -18.44141,-118.66796 4.07497,-29.96525 6.63376,-33.08591 29.15625,-35.54102 3.23954,-0.35313 5.18372,-0.47315 6.41016,-0.26172 z m 83.95313,10.44727 V 771.32227 997.33398 H 353.33398 304 v -81.80859 -81.80664 l 8.37695,-0.78125 c 9.23667,-0.86254 13.28392,-2.24577 18.28907,-6.24414 L 334,824.03125 l 11.4043,3.15625 c 6.27277,1.73613 14.37282,3.5619 18,4.05664 6.48942,0.88516 6.68795,0.80429 12.41015,-5.04102 l 5.81641,-5.93945 -0.93555,-9.79883 c -0.51416,-5.38895 -2.68025,-14.8764 -4.81445,-21.08203 C 373.54848,782.60096 372,775.3465 372,771.19727 c 0,-3.7967 -0.96371,-11.91978 -2.14258,-18.05079 -2.89368,-15.04917 -1.84922,-35.93958 2.71289,-54.23242 5.86676,-23.52384 4.62552,-38.33073 -5.20312,-62.07422 -8.07996,-19.51913 -7.67051,-27.27843 2.29101,-43.36914 2.99801,-4.84258 10.4198,-16.90473 16.49219,-26.80468 6.0724,-9.89995 12.2736,-18.75486 13.7793,-19.67774 z m -124.19727,2.10547 c 0.41561,-0.0924 0.83418,-0.0802 1.21094,0.0527 0.50234,0.17727 0.93042,0.57113 1.17969,1.2207 0.41694,1.08764 0.41483,2.87657 -0.008,3.97657 -1.36904,3.5681 -4.85156,2.07693 -4.85156,-2.07813 0,-1.68056 1.22191,-2.89458 2.46875,-3.17187 z m 25.55664,163.91796 3.29102,7.06836 c 7.22441,15.51823 7.65828,18.09885 4.58007,27.23633 -1.52239,4.51931 -3.89537,10.34878 -5.27343,12.95508 l -2.50586,4.74023 -0.0449,-26 z m 12.13672,62 c -6.17089,0 -8.62468,3.00228 -5.22852,6.39844 1.90039,1.90038 16.56042,2.16415 17.70118,0.31836 0.93841,-1.51845 -8.7149,-6.7168 -12.47266,-6.7168 z m 48.41797,12 c 3.45285,0 6.3606,8.76957 7.0957,21.4004 0.55521,9.53987 0.29366,11.77279 -1.60156,13.66796 -4.32755,4.32754 -6.05483,2.84998 -6.32031,-5.40234 l -0.24805,-7.66602 -0.48828,7 c -0.33503,4.78902 -1.06649,7 -2.3125,7 -1.0017,0 -2.61911,0.21482 -3.5957,0.47852 -0.3188,0.0861 -1.0322,-0.0502 -1.53711,-0.0273 l 0.14257,-3.71094 0.0234,-0.0605 -0.0117,-0.26758 -0.0312,-0.73242 c 0.1556,-1.93314 0.1692,-4.40656 -0.0742,-6.01367 -0.3055,-2.01667 -0.55468,-0.36731 -0.55468,3.66602 0,2.33551 -0.038,3.83812 0.0918,4.32617 l 0.041,2.78711 c -0.97015,0.0142 -1.83996,0.13346 -2.79883,-0.0508 -2.49091,-0.47848 -3.00654,-1.60547 -3.41992,-7.47852 l -0.48633,-6.91602 -0.24805,6.875 c -0.22115,6.16473 -0.52102,6.80302 -2.91211,6.17774 -2.07781,-0.54337 -2.71151,-1.91471 -2.86718,-6.20899 -0.15875,-4.37931 -0.30805,-4.69025 -0.72461,-1.51171 -0.89768,6.8496 -1.5149,7.84985 -3.72266,6.01757 -1.70946,-1.41869 -1.7076,-2.08544 0.0156,-5.41797 1.08069,-2.08977 1.96484,-4.62253 1.96484,-5.62695 0,-4.62347 19.48526,-22.30469 24.58008,-22.30469 z" />
    <path
       id="path7"
       style="display:inline;fill:#ff0000;stroke-width:1.18633"
       d="m 126.02344,217.12891 c -0.0843,-2.7e-4 -0.17051,0.004 -0.25586,0.0117 -1.3656,0.11994 -2.82588,1.22909 -3.21094,3.22852 -0.35451,1.84082 0.47262,2.66797 2.66797,2.66797 2.19538,0 3.17969,-0.98434 3.17969,-3.17969 0,-1.84274 -1.11607,-2.72445 -2.38086,-2.72851 z m 450.125,6.5039 c -2.10483,0 -3.56172,2.92429 -2.41211,4.83985 0.53849,0.89725 1.63164,1.21688 2.42969,0.70898 1.89328,-1.20497 1.87909,-5.54883 -0.0176,-5.54883 z M 316.10156,773.23242 c -6.33916,0 -8.85987,3.08348 -5.37109,6.57227 1.9522,1.95219 17.01172,2.22422 18.18359,0.32812 0.96403,-1.55985 -8.95229,-6.90039 -12.8125,-6.90039 z" />
  </g>
</svg>
